<svg width="410" height="404" viewBox="0 0 410 404" fill="none" xmlns="http://www.w3.org/2000/svg">
  <path d="M399.641 59.5246L215.643 388.545C210.609 397.432 197.394 397.4 192.41 388.493L10.398 59.532C5.046 50.032 12.314 38.7046 23.028 40.7076L205.223 75.1786C206.398 75.4026 207.601 75.3986 208.775 75.1666L386.965 40.7166C397.651 38.6866 404.943 49.9476 399.632 59.4516L399.641 59.5246Z" fill="url(#paint0_linear)"/>
  <path d="M292.965 1.5744L156.801 28.2556C154.563 28.6946 152.906 30.5904 152.798 32.8684L146.708 161.727C146.579 164.437 149.058 166.506 151.708 165.889L188.42 157.407C191.247 156.752 193.724 159.39 192.931 162.204L180.512 206.672C179.694 209.595 182.387 212.212 185.27 211.314L206.75 204.696C209.64 203.796 212.337 206.423 211.51 209.35L189.102 290.025C187.987 294.009 193.448 296.311 195.66 292.846L197.031 290.754L296.158 97.4376C297.666 94.4526 295.117 91.0224 291.854 91.6536L254.35 98.7916C251.398 99.3504 249.048 96.6416 250.129 93.7956L300.697 57.7324C303.687 55.6054 301.888 50.8964 298.227 51.6054L214.204 67.9106C211.168 68.4986 208.778 65.3564 210.393 62.6764L232.21 26.0861C233.896 23.2921 231.475 19.9445 228.36 20.5533Z" fill="url(#paint1_linear)"/>
  <defs>
    <linearGradient id="paint0_linear" x1="6.00017" y1="32.9999" x2="235" y2="344" gradientUnits="userSpaceOnUse">
      <stop stop-color="#41D1FF"/>
      <stop offset="1" stop-color="#BD34FE"/>
    </linearGradient>
    <linearGradient id="paint1_linear" x1="194.651" y1="8.81818" x2="236.076" y2="292.989" gradientUnits="userSpaceOnUse">
      <stop stop-color="#FFEA83"/>
      <stop offset="0.0833333" stop-color="#FFDD35"/>
      <stop offset="1" stop-color="#FFA800"/>
    </linearGradient>
  </defs>
</svg>
